#!OML:ASF F:\VICON\USERDATA\INSTALL\rory3\rory3.ASF
:FULLY-SPECIFIED
:DEGREES
523
root 3.49601 17.4262 -26.6386 -3.38019 6.88077 3.51036
lowerback 24.1639 -1.95 -2.79111
upperback 1.66445 -3.10283 1.5495
thorax -11.4225 -1.24415 4.37432
lowerneck -15.4319 -0.882101 -3.19828
upperneck 16.5389 0.144383 -3.04269
head 7.65665 -0.430573 -0.461775
rclavicle -4.37326e-015 1.03368e-014
rhumerus -33.9755 -30.237 -27.196
rradius 103.585
rwrist -15.0247
rhand 22.0936 6.90792
rfingers 7.12502
rthumb 46.4802 -15.9839
lclavicle -4.37326e-015 1.03368e-014
lhumerus -47.207 9.06854 69.0242
lradius 57.4463
lwrist 15.2092
lhand -14.7626 53.4423
lfingers 7.12502
lthumb 11.3937 83.1127
rfemur -28.5693 3.56301 17.8692
rtibia 32.4417
rfoot -1.58468 -20.0525
rtoes 28.9634
lfemur 11.0676 -12.0767 -21.2016
ltibia 30.6009
lfoot 7.74362 -17.3514
ltoes 3.37987
524
root 3.51107 17.3981 -26.8711 -3.01728 7.21714 3.62559
lowerback 24.5412 -2.05301 -2.99568
upperback 1.36979 -3.30967 1.52016
thorax -11.9379 -1.3059 4.56312
lowerneck -14.8373 -1.14053 -2.97526
upperneck 16.186 -0.239424 -3.37625
head 7.43516 -0.61896 -0.643402
rclavicle -1.63003e-014 1.51076e-014
rhumerus -33.3322 -28.4953 -27.5864
rradius 104.985
rwrist -11.7599
rhand 21.2904 6.89593
rfingers 7.12502
rthumb 45.7352 -16.3081
lclavicle -1.63003e-014 1.51076e-014
lhumerus -46.9325 8.72259 69.2109
lradius 58.2099
lwrist 15.2409
lhand -14.6111 52.8253
lfingers 7.12502
lthumb 11.5398 82.4876
rfemur -29.3393 3.60861 17.3234
rtibia 31.8669
rfoot -2.32084 -20.5714
rtoes 27.6459
lfemur 11.1007 -12.1246 -21.5413
ltibia 29.6645
lfoot 1.89404 -18.2456
ltoes -4.50726
525
root 3.51875 17.3643 -27.1153 -2.70296 7.35503 3.58821
lowerback 25.3877 -2.07601 -3.12117
upperback 0.795267 -3.42026 1.41804
thorax -13.0587 -1.29854 4.63791
lowerneck -14.06 -1.02272 -2.27159
upperneck 15.9525 -0.230026 -3.63759
head 7.21852 -0.583802 -0.835256
rclavicle -9.93923e-015 -3.18055e-015
rhumerus -33.3277 -26.1993 -28.0154
rradius 106.56
rwrist -8.59797
rhand 21.9877 6.71142
rfingers 7.12502
rthumb 46.382 -16.2223
lclavicle -9.93923e-015 -3.18055e-015
lhumerus -47.2329 7.93905 69.1919
lradius 59.2098
lwrist 15.4623
lhand -14.8459 52.8255
lfingers 7.12502
lthumb 11.3134 82.5004
rfemur -30.1215 3.96478 16.995
rtibia 31.2852
rfoot -3.30857 -21.0892
rtoes 25.3362
lfemur 10.9069 -11.7077 -21.575
ltibia 28.9667
lfoot -2.29194 -18.3412
ltoes -11.3641
526
root 3.52468 17.3344 -27.359 -2.48762 7.53554 3.66693
lowerback 24.1317 -1.91696 -3.82462
upperback 1.74603 -3.32717 1.61085
thorax -11.2273 -1.30257 5.10366
lowerneck -14.0132 -1.19751 -2.32341
upperneck 14.5987 -0.523596 -3.55256
head 6.76889 -0.693546 -0.817314
rclavicle -1.33186e-014 -1.98785e-014
rhumerus -31.9088 -25.8004 -28.8782
rradius 107.893
rwrist -5.39921
rhand 20.8543 5.90176
rfingers 7.12502
rthumb 45.3301 -17.4666
lclavicle -1.33186e-014 -1.98785e-014
lhumerus -45.0854 8.06199 70.0019
lradius 59.8898
lwrist 15.3866
lhand -15.1877 52.7414
lfingers 7.12502
lthumb 10.9837 82.4341
rfemur -30.7115 4.11825 16.5822
rtibia 30.56
rfoot -4.39098 -21.0885
rtoes 22.3982
lfemur 10.4964 -11.0953 -21.6978
ltibia 28.5027
lfoot -4.62391 -17.9673
ltoes -8.91167
527
root 3.53882 17.3073 -27.5936 -2.1791 7.56577 3.92675
lowerback 24.3947 -1.90558 -3.95412
upperback 1.89111 -3.38718 1.31793
thorax -11.209 -1.33449 4.87608
lowerneck -15.5464 -1.06939 -1.81976
upperneck 15.2084 -0.370771 -3.62442
head 7.22999 -0.622927 -0.924974
rclavicle -4.80065e-014 -4.77083e-015
rhumerus -31.4176 -24.3623 -30.2389
rradius 109.147
rwrist -1.91082
rhand 20.0394 6.14209
rfingers 7.12502
rthumb 44.5717 -17.5242
lclavicle -4.80065e-014 -4.77083e-015
lhumerus -43.947 7.49963 70.1112
lradius 60.6352
lwrist 15.2488
lhand -15.0377 52.3997
lfingers 7.12502
lthumb 11.1284 82.0846
rfemur -31.2491 3.94741 16.1176
rtibia 29.7165
rfoot -5.42561 -20.3155
rtoes 18.8706
lfemur 9.86382 -10.0882 -21.9385
ltibia 28.1364
lfoot -6.62972 -16.7958
ltoes -3.45719
528
root 3.54429 17.2933 -27.8367 -1.89621 7.66946 4.10728
lowerback 24.7066 -1.91678 -4.33722
upperback 1.64737 -3.54046 1.19277
thorax -11.6263 -1.3668 5.03535
lowerneck -14.7156 -1.13355 -1.8188
upperneck 15.0342 -0.540548 -3.35575
head 7.02735 -0.669213 -0.847006
rclavicle -1.05356e-014 7.55382e-015
rhumerus -31.274 -21.9393 -31.5123
rradius 110.129
rwrist 1.95181
rhand 18.5149 6.32308
rfingers 7.12502
rthumb 43.1492 -17.8699
lclavicle -1.05356e-014 7.55382e-015
lhumerus -43.8164 7.03046 70.1394
lradius 61.3777
lwrist 14.953
lhand -14.6126 51.8676
lfingers 7.12502
lthumb 11.5383 81.53
rfemur -31.5933 3.50518 15.8935
rtibia 28.7053
rfoot -6.60923 -19.4502
rtoes 15.4984
lfemur 9.12045 -9.01222 -22.0099
ltibia 27.7881
lfoot -9.80314 -14.7761
ltoes -8.65226
529
root 3.54769 17.2858 -28.0824 -1.68532 7.78521 4.57841
lowerback 24.3162 -1.76748 -5.03773
upperback 2.02188 -3.53187 0.98416
thorax -10.9579 -1.37172 5.1567
lowerneck -14.0416 -0.797257 -1.42804
upperneck 13.5235 -0.265321 -3.18434
head 6.42474 -0.470959 -0.812082
rclavicle -2.59414e-014 9.93923e-015
rhumerus -31.1928 -20.4247 -32.9391
rradius 111.188
rwrist 5.36585
rhand 16.9567 6.03081
rfingers 7.12502
rthumb 41.6902 -18.6622
lclavicle -2.59414e-014 9.93923e-015
lhumerus -42.51 6.6494 70.3785
lradius 61.7995
lwrist 14.7723
lhand -14.4673 51.4447
lfingers 7.12502
lthumb 11.6785 81.0992
rfemur -31.7105 3.10774 15.3392
rtibia 27.5091
rfoot -8.10899 -18.713
rtoes 12.2894
lfemur 8.35521 -7.9851 -22.464
ltibia 27.5105
lfoot -11.395 -14.0316
ltoes -11.2701
530
root 3.54505 17.281 -28.3261 -1.58055 7.6465 4.65779
lowerback 25.6377 -1.7444 -5.06448
upperback 1.76705 -3.61081 0.766807
thorax -11.9691 -1.35682 5.04519
lowerneck -14.8453 -0.925581 -1.46784
upperneck 14.088 -0.430343 -2.95441
head 6.74204 -0.547326 -0.756911
rclavicle -1.11319e-014 1.03368e-014
rhumerus -31.5183 -17.9176 -34.6884
rradius 112.199
rwrist 8.33862
rhand 15.4462 5.54253
rfingers 7.12502
rthumb 40.2715 -19.601
lclavicle -1.11319e-014 1.03368e-014
lhumerus -41.963 6.16648 70.3422
lradius 62.1322
lwrist 14.8082
lhand -14.7161 50.4941
lfingers 7.12502
lthumb 11.4386 80.162
rfemur -31.6424 3.21211 15.1582
rtibia 26.1096
rfoot -9.91631 -18.4053
rtoes 10.2529
lfemur 7.67268 -7.25457 -22.5804
ltibia 27.1939
lfoot -12.4766 -13.178
ltoes -10.7003
531
root 3.5396 17.2829 -28.5602 -1.33628 7.53495 4.50118
lowerback 26.0104 -1.62191 -5.12246
upperback 1.54035 -3.50255 0.716378
thorax -12.4472 -1.27751 5.01672
lowerneck -13.9722 -1.07661 -1.2676
upperneck 13.5933 -0.71007 -2.98446
head 6.42968 -0.660824 -0.816532
rclavicle 2.16675e-014 -5.56597e-015
rhumerus -31.8912 -15.8703 -36.482
rradius 112.542
rwrist 11.4493
rhand 14.0052 5.55933
rfingers 7.12502
rthumb 38.9145 -19.9851
lclavicle 2.16675e-014 -5.56597e-015
lhumerus -41.5575 5.29176 70.535
lradius 62.3856
lwrist 14.6061
lhand -14.9388 49.8576
lfingers 7.12502
lthumb 11.2238 79.5374
rfemur -31.6243 3.7716 15.0799
rtibia 24.6356
rfoot -11.8495 -18.7497
rtoes 9.2717
lfemur 6.84948 -7.09788 -22.4787
ltibia 26.8958
lfoot -13.0993 -12.5119
ltoes -6.61109
532
root 3.55454 17.305 -28.7681 -1.17888 7.55682 4.80656
lowerback 26.0792 -1.62019 -5.36458
upperback 1.34689 -3.61091 0.511437
thorax -12.6981 -1.30442 4.97117
lowerneck -12.8881 -1.05416 -1.41303
upperneck 13.1877 -0.741922 -2.6462
head 6.11682 -0.643109 -0.676792
rclavicle 2.36554e-014 -2.38542e-015
rhumerus -32.4705 -13.5128 -38.4841
rradius 112.618
rwrist 14.3321
rhand 12.0519 5.56568
rfingers 7.12502
rthumb 37.0698 -20.4807
lclavicle 2.36554e-014 -2.38542e-015
lhumerus -41.5709 4.58166 70.5964
lradius 62.7824
lwrist 14.1588
lhand -15.0852 50.0441
lfingers 7.12502
lthumb 11.0826 79.7315
rfemur -31.2141 3.70458 14.6147
rtibia 23.1271
rfoot -13.4447 -19.1138
rtoes 6.76852
lfemur 6.31085 -7.36743 -23.1235
ltibia 26.5625
lfoot -14.015 -11.3845
ltoes -7.95487
533
root 3.57183 17.3211 -28.9737 -0.929436 7.52411 4.82335
lowerback 25.9175 -1.63492 -5.10634
upperback 1.47915 -3.56327 0.3347
thorax -12.4897 -1.31677 4.58915
lowerneck -13.6507 -1.03904 -1.49851
upperneck 13.4283 -0.726157 -2.34731
head 6.32465 -0.623024 -0.573081
rclavicle 5.83433e-014 -1.82882e-014
rhumerus -32.7472 -11.8239 -40.7213
rradius 112.296
rwrist 16.9576
rhand 9.64307 5.47352
rfingers 7.12502
rthumb 34.7877 -21.1318
lclavicle 5.83433e-014 -1.82882e-014
lhumerus -40.6163 3.82633 70.8599
lradius 62.8069
lwrist 14.049
lhand -15.6191 49.7297
lfingers 7.12502
lthumb 10.5676 79.4441
rfemur -30.9661 4.09624 14.3449
rtibia 21.825
rfoot -14.8146 -20.2089
rtoes 5.40726
lfemur 5.49825 -7.62107 -23.3816
ltibia 26.3066
lfoot -15.175 -10.3499
ltoes -12.1307
534
root 3.58293 17.3354 -29.177 -0.766493 7.46214 4.60513
lowerback 24.5153 -1.59346 -4.88084
upperback 2.53598 -3.33212 0.299889
thorax -10.5567 -1.32841 4.22458
lowerneck -14.5676 -1.24692 -1.87155
upperneck 12.7208 -1.01665 -1.73478
head 6.25775 -0.727774 -0.346724
rclavicle -1.59028e-014 -1.03368e-014
rhumerus -31.9337 -11.3328 -43.2081
rradius 111.454
rwrist 18.7741
rhand 7.68135 5.58903
rfingers 7.12502
rthumb 32.924 -21.4272
lclavicle -1.59028e-014 -1.03368e-014
lhumerus -37.9641 3.37972 71.3932
lradius 62.3773
lwrist 14.4277
lhand -16.6605 49.1418
lfingers 7.12502
lthumb 9.56287 78.9048
rfemur -30.8179 4.63027 14.3854
rtibia 21.0141
rfoot -15.8686 -21.7925
rtoes 5.91491
lfemur 4.7153 -7.92998 -23.2795
ltibia 26.0755
lfoot -15.777 -9.79951
ltoes -13.263
535
root 3.59121 17.3478 -29.3807 -0.72778 7.28336 4.38465
lowerback 25.0731 -1.56632 -4.70916
upperback 2.12244 -3.29433 0.304252
thorax -11.3422 -1.27836 4.16424
lowerneck -14.1105 -1.25062 -1.89998
upperneck 13.2489 -1.00706 -1.80868
head 6.34904 -0.734567 -0.364338
rclavicle 2.82274e-014 1.07344e-014
rhumerus -32.8936 -8.80412 -45.2976
rradius 110.521
rwrist 20.2303
rhand 5.30603 5.66042
rfingers 7.12502
rthumb 30.6618 -21.8049
lclavicle 2.82274e-014 1.07344e-014
lhumerus -38.1868 2.70638 71.6066
lradius 62.4914
lwrist 14.0497
lhand -16.1598 49.1116
lfingers 7.12502
lthumb 10.046 78.8518
rfemur -30.7584 4.47054 14.8356
rtibia 20.8535
rfoot -16.4718 -22.7675
rtoes 6.95946
lfemur 3.87049 -8.0948 -23.1345
ltibia 26.2166
lfoot -16.2042 -9.44787
ltoes -13.1508
536
root 3.6065 17.3543 -29.577 -0.634706 6.76806 4.21413
lowerback 24.9299 -1.36818 -4.56052
upperback 2.47422 -2.97384 0.316773
thorax -10.9012 -1.15998 3.96832
lowerneck -15.4123 -1.53136 -2.10656
upperneck 13.5445 -1.31354 -1.71461
head 6.66739 -0.893433 -0.343054
rclavicle 1.6201e-014 -1.43125e-014
rhumerus -32.8258 -7.44671 -47.478
rradius 109.01
rwrist 21.7251
rhand 2.1973 5.65775
rfingers 7.12502
rthumb 27.6933 -22.3233
lclavicle 1.6201e-014 -1.43125e-014
lhumerus -36.9257 2.53047 71.9434
lradius 62.3638
lwrist 13.1446
lhand -15.2033 49.1915
lfingers 7.12502
lthumb 10.9686 78.8849
rfemur -30.955 3.38204 15.7482
rtibia 21.2924
rfoot -16.3819 -22.655
rtoes 6.05272
lfemur 3.04611 -8.22457 -23.1105
ltibia 26.4245
lfoot -16.5117 -9.02794
ltoes -11.116
